<svg width="" height="" viewBox="0 0 17 16" fill="" xmlns="http://www.w3.org/2000/svg">
  <path fill-rule="evenodd" clip-rule="evenodd"
    d="M9.72425 2.18487L11.7969 0L12.6192 0.867076L10.5473 3.05276C10.0206 3.60818 9.7289 4.24867 9.67848 4.85153C9.64512 5.26053 9.72037 5.67198 9.93213 6.05562L13.7362 2.04499L14.5584 2.91207L10.7528 6.92515C11.1197 7.15501 11.5084 7.24172 11.89 7.21472C12.447 7.17628 13.028 6.89243 13.5159 6.37791C14.1776 5.67938 14.838 4.97944 15.497 4.27812L15.6723 4.09162L16.5 4.9546L16.3239 5.14274C15.6632 5.84481 15.0013 6.54556 14.3381 7.24499C13.6795 7.93947 12.8433 8.3771 11.9668 8.43845C11.2336 8.49002 10.5067 8.2676 9.91352 7.81022L8.95863 8.818L14.947 15.1329L14.124 16L9.49309 11.1166L7.16598 13.5706L5.8085 12.1391L2.14719 16L1.32495 15.1329L4.98626 11.272L1.57938 7.68016C1.23718 7.31936 0.965724 6.891 0.780523 6.41955C0.595322 5.94811 0.5 5.44281 0.5 4.93251C0.5 4.42222 0.595322 3.91692 0.780523 3.44548C0.965724 2.97403 1.23718 2.54567 1.57938 2.18487L2.12392 1.61063L8.13561 7.9501L9.09205 6.94233C8.65611 6.30679 8.45304 5.52635 8.52036 4.74519C8.59793 3.80695 9.0393 2.90797 9.72425 2.18487ZM8.67084 10.2495L2.14564 3.36851C1.79236 3.8806 1.62403 4.50887 1.67096 5.1402C1.71789 5.77154 1.97699 6.36447 2.40162 6.81227L7.16598 11.8356L8.67084 10.2495Z"
    fill="" />
</svg>