<svg width="" height="" viewBox="0 0 21 20" fill="" xmlns="http://www.w3.org/2000/svg">
  <path fill-rule="evenodd" clip-rule="evenodd"
    d="M1.79759 2.88582C1.89433 2.65228 2.12223 2.5 2.37502 2.5H18.625C18.8778 2.5 19.1057 2.65228 19.2024 2.88582C19.2992 3.11937 19.2457 3.38819 19.067 3.56694L10.942 11.6919C10.6979 11.936 10.3022 11.936 10.0581 11.6919L1.93308 3.56694C1.75433 3.38819 1.70086 3.11937 1.79759 2.88582ZM3.8839 3.75L10.5 10.3661L17.1161 3.75H3.8839Z"
    fill="" />
  <path fill-rule="evenodd" clip-rule="evenodd"
    d="M10.5 10.625C10.8452 10.625 11.125 10.9048 11.125 11.25V16.875C11.125 17.2202 10.8452 17.5 10.5 17.5C10.1548 17.5 9.875 17.2202 9.875 16.875V11.25C9.875 10.9048 10.1548 10.625 10.5 10.625Z"
    fill="" />
  <path fill-rule="evenodd" clip-rule="evenodd"
    d="M6.75 16.875C6.75 16.5298 7.02982 16.25 7.375 16.25H13.625C13.9702 16.25 14.25 16.5298 14.25 16.875C14.25 17.2202 13.9702 17.5 13.625 17.5H7.375C7.02982 17.5 6.75 17.2202 6.75 16.875Z"
    fill="" />
  <path fill-rule="evenodd" clip-rule="evenodd"
    d="M4.25 5.625C4.25 5.27982 4.52982 5 4.875 5H16.125C16.4702 5 16.75 5.27982 16.75 5.625C16.75 5.97018 16.4702 6.25 16.125 6.25H4.875C4.52982 6.25 4.25 5.97018 4.25 5.625Z"
    fill="" />
</svg>