<svg width="" height="" viewBox="0 0 15 16" fill="" xmlns="http://www.w3.org/2000/svg">
  <path fill-rule="evenodd" clip-rule="evenodd"
    d="M7.49971 16C7.49971 16 14.1068 11.6364 14.1068 6.54545C14.1068 4.80949 13.4107 3.14463 12.1717 1.91712C10.9326 0.689608 9.25203 0 7.49971 0C5.74739 0 4.06684 0.689608 2.82776 1.91712C1.58868 3.14463 0.892578 4.80949 0.892578 6.54545C0.892578 11.6364 7.49971 16 7.49971 16ZM9.70185 6.54543C9.70185 7.75041 8.71581 8.72724 7.49947 8.72724C6.28313 8.72724 5.29709 7.75041 5.29709 6.54543C5.29709 5.34044 6.28313 4.36361 7.49947 4.36361C8.71581 4.36361 9.70185 5.34044 9.70185 6.54543Z"
    fill="" />
</svg>