<svg width="" height="" viewBox="0 0 19 18" fill="" xmlns="http://www.w3.org/2000/svg">
  <path fill-rule="evenodd" clip-rule="evenodd"
    d="M12.3125 2.25C10.1379 2.25 8.375 4.01288 8.375 6.1875C8.375 8.36212 10.1379 10.125 12.3125 10.125C14.4871 10.125 16.25 8.36212 16.25 6.1875C16.25 4.01288 14.4871 2.25 12.3125 2.25ZM7.25 6.1875C7.25 3.39156 9.51656 1.125 12.3125 1.125C15.1084 1.125 17.375 3.39156 17.375 6.1875C17.375 8.98344 15.1084 11.25 12.3125 11.25C9.51656 11.25 7.25 8.98344 7.25 6.1875Z"
    fill="" />
  <path fill-rule="evenodd" clip-rule="evenodd"
    d="M8.72921 2.60457C8.94888 2.3849 9.30503 2.3849 9.5247 2.60457L15.895 8.97488C16.1147 9.19455 16.1147 9.55071 15.895 9.77038C15.6753 9.99005 15.3192 9.99005 15.0995 9.77038L8.72921 3.40007C8.50954 3.1804 8.50954 2.82424 8.72921 2.60457Z"
    fill="" />
  <path fill-rule="evenodd" clip-rule="evenodd"
    d="M7.929 10.571C8.14867 10.7907 8.14867 11.1468 7.929 11.3665L7.08525 12.2102C6.86558 12.4299 6.50942 12.4299 6.28975 12.2102C6.07008 11.9906 6.07008 11.6344 6.28975 11.4148L7.1335 10.571C7.35317 10.3513 7.70933 10.3513 7.929 10.571Z"
    fill="" />
  <path fill-rule="evenodd" clip-rule="evenodd"
    d="M8.20218 6.42997C8.45271 6.61367 8.50688 6.96568 8.32317 7.21621L2.9302 14.5709L2.93062 14.5717L3.92959 15.5708L11.2846 10.1776C11.5351 9.99392 11.8871 10.0481 12.0708 10.2986C12.2545 10.5491 12.2004 10.9012 11.9498 11.0849L4.59731 16.4762C4.38065 16.6378 4.11273 16.7155 3.84316 16.6948C3.57366 16.674 3.32084 16.5564 3.13146 16.3636L2.13712 15.3693C1.94441 15.1799 1.82676 14.9271 1.80603 14.6576C1.78529 14.3881 1.86296 14.1201 2.02456 13.9035L7.41594 6.55096C7.59964 6.30043 7.95165 6.24626 8.20218 6.42997Z"
    fill="" />
</svg>