<svg width="16" height="15" viewBox="0 0 16 15" fill="none" xmlns="http://www.w3.org/2000/svg">
<path fill-rule="evenodd" clip-rule="evenodd" d="M6.59016 1.60499C5.39867 1.60499 4.25599 2.0783 3.41348 2.92081C2.57097 3.76332 2.09766 4.906 2.09766 6.09749C2.09766 7.28897 2.57097 8.43166 3.41348 9.27417C4.25599 10.1167 5.39867 10.59 6.59016 10.59C7.78164 10.59 8.92433 10.1167 9.76683 9.27417C10.6093 8.43166 11.0827 7.28897 11.0827 6.09749C11.0827 4.906 10.6093 3.76332 9.76683 2.92081C8.92433 2.0783 7.78164 1.60499 6.59016 1.60499ZM0.972656 6.09749C0.972635 5.19796 1.18863 4.31158 1.60248 3.5129C2.01633 2.71423 2.61593 2.02661 3.35084 1.5079C4.08575 0.989191 4.93448 0.654549 5.82564 0.532127C6.7168 0.409704 7.62432 0.50308 8.47188 0.804401C9.31945 1.10572 10.0823 1.60618 10.6961 2.26367C11.31 2.92116 11.757 3.71646 11.9996 4.58267C12.2421 5.44888 12.2731 6.36068 12.0899 7.24135C11.9067 8.12203 11.5147 8.94584 10.9469 9.64349L15.0277 13.725L14.2327 14.5207L10.1527 10.4407C9.33001 11.1155 8.33266 11.5427 7.27667 11.6728C6.22068 11.8028 5.14947 11.6302 4.18772 11.1752C3.22596 10.7202 2.4132 10.0014 1.84403 9.10246C1.27486 8.20354 0.97268 7.16146 0.972656 6.09749Z" fill="black"/>
</svg>
