<svg width="290" height="83" viewBox="0 0 290 83" fill="none" xmlns="http://www.w3.org/2000/svg">
<path d="M201.202 51.5683C198.655 54.696 195.793 58.7881 194.072 62.4881C193.231 64.294 190.908 69.5728 193.79 70.3515C196.945 71.2043 203.507 64.4075 205.573 62.1881L205.428 61.6955C202.163 59.6384 201.034 55.2425 201.202 51.5683ZM214.326 41.7852C212.853 40.5635 210.042 46.2352 209.568 47.2863C208.549 49.5431 207.149 53.351 207.607 55.7912C207.873 57.2056 209.351 56.6372 210.136 55.9649C212.505 53.9368 215.309 44.9303 214.326 41.7852ZM256.143 55.193C256.029 55.4032 256.177 55.6572 256.415 55.669C262.644 55.9766 273.89 48.0529 274.792 42.2105C275.328 38.7401 272.325 40.2439 270.364 41.1511C266.449 42.9616 262.104 47.4198 259.385 50.7488C259.064 51.143 256.761 54.0531 256.143 55.193ZM253.687 59.4387C253.503 59.3561 253.289 59.4643 253.243 59.6617C248.954 78.3172 262.404 70.9122 271.271 64.6977C277.622 60.2466 283.397 54.7646 288.995 49.4131C289.016 49.3938 289.039 49.3763 289.064 49.3631C290.108 48.801 288.771 51.2824 288.243 52.2541C288.231 52.2765 288.217 52.2972 288.202 52.3171C288.05 52.5077 286.783 54.4006 286.764 54.4457C285.79 55.7894 284.727 57.0326 283.965 57.9879C275.919 68.073 261.626 83.9318 248.29 73.6843C233.638 62.4267 254.26 35.1722 267.717 33.7609C272.904 33.217 280.813 37.106 280.943 42.9834C281.15 52.3122 264.965 63.6086 256.339 60.8802C255.894 60.7395 254.4 59.758 253.687 59.4387ZM243.656 64.561C243.543 64.1816 243.88 63.962 243.146 64.0718C239.294 68.2476 235.247 72.9468 230.276 75.8283C214.947 84.713 211.526 69.2619 218.384 58.3287C214.046 58.9983 212.644 62.6479 210.135 65.4244C205.116 70.9789 194.182 81.7299 187.051 73.705C179.381 65.0724 188.621 49.9943 194.797 42.9438C196.269 41.2625 201.345 36.0235 203.216 35.5082C205.784 34.8008 206.193 36.7079 207.094 36.7076C207.629 36.7074 209.147 35.293 210.111 34.9924C216.182 33.0999 219.466 38.1795 219.743 43.614C219.93 47.283 218.72 50.3048 217.375 53.5936C217.621 53.8463 222.1 51.3318 222.6 50.8985C224.903 48.9031 229.704 40.3851 231.92 37.2719C239.83 26.1564 248.431 15.502 255.423 3.75052C257.555 1.86749 260.114 5.03585 260.594 7.03361C262.038 13.0492 259.359 16.2975 256.453 20.999C247.241 35.9049 234.54 51.1107 226.747 66.5447C226.099 67.8269 224.014 71.1129 225.901 71.7931C227.918 71.6111 237.355 62.1776 239.276 60.1925C241.05 58.3608 244.265 55.2768 245.667 53.426" fill="white"/>
<path d="M146.639 47.5105C147.047 47.8332 155.092 43.951 156.191 43.4118C164.25 39.4579 175.605 33.1496 179.823 24.8835C184.61 15.5029 177.19 10.8608 168.533 11.3664C170.344 14.5969 170.86 17.6679 168.814 20.9359C165.506 26.2191 157.992 33.0685 153.72 38.2311C151.242 41.2268 148.855 44.3161 146.639 47.5105ZM151.355 56.978C151.082 57.3419 155.98 62.1827 156.584 62.7083C160.619 66.2182 169.935 72.8833 175.099 68.7972C176.374 67.7885 177.845 63.4606 179.088 67.5019C180.367 71.6596 176.879 76.1041 173.358 77.8623C161.301 83.883 145.955 70.1764 139.734 60.697C137.428 65.1751 137.36 70.3372 136.501 75.1887C132.088 74.8968 128.461 69.4007 128.101 65.2633C127.187 54.7612 134.113 44.7333 140.248 36.8807C146.559 28.803 153.877 21.4667 159.775 13.0557C146.633 17.0222 129.797 26.3458 128.785 41.772C123.351 41.4998 120.877 36.0381 121.034 31.1425C121.444 18.3659 144.55 4.69585 155.59 1.92815C183.18 -4.98905 205.06 19.6085 180.836 41.7792C172.896 49.0465 162.003 55.1299 151.355 56.978Z" fill="white"/>
<path d="M50.3991 20.4852C48.5631 20.2669 46.3843 20.6445 44.5046 20.4852C44.4244 21.7394 45.5956 22.2156 46.1518 23.3942C46.8449 24.8628 47.1005 26.3433 46.2548 27.8171C36.1475 38.939 21.5298 53.3034 17.9949 68.3926C17.841 69.0494 17.0698 71.2256 18.065 71.172C20.9357 71.0174 28.3335 66.8567 31.0028 65.2228C40.5409 59.3847 57.1072 44.6074 60.1679 33.6624C62.1833 26.4555 57.3767 21.3148 50.3991 20.4852ZM30.6944 24.543C30.3463 24.2402 25.0812 27.312 24.3209 27.7756C17.7869 31.76 11.463 36.903 8.17477 44.0147C7.77968 44.8692 7.17535 47.8874 6.3363 47.8112C-4.71202 41.3326 2.17504 28.8284 9.46913 22.3387C27.4534 6.33741 68.6223 3.12476 65.6816 36.8278C64.1527 54.3506 44.3484 75.9317 27.9203 81.0511C23.3991 82.46 18.4512 83.377 14.8545 79.4502C12.981 77.4048 13.2574 75.6862 12.1202 73.7465C11.5556 72.7834 10.229 71.717 9.53366 70.5972C6.58538 65.8489 7.43632 62.1152 9.13098 57.1367C13.4049 44.5809 22.8432 34.8542 30.6944 24.543Z" fill="white"/>
<path d="M73.9445 57.8802C73.8305 58.0904 73.978 58.3443 74.2162 58.3561C80.4451 58.6637 91.6918 50.7401 92.5938 44.8976C93.1295 41.4273 90.1269 42.931 88.1652 43.8382C84.2502 45.6487 79.9053 50.1069 77.187 53.436C76.8651 53.8302 74.5626 56.7402 73.9445 57.8802ZM71.4886 62.1258C71.3042 62.0433 71.0903 62.1515 71.0449 62.3489C66.7551 81.0044 80.2057 73.5994 89.0725 67.3848C95.4233 62.9337 101.199 57.4518 106.797 52.1003C106.817 52.0809 106.84 52.0635 106.865 52.0502C107.909 51.4881 106.572 53.9695 106.044 54.9412C106.032 54.9637 106.019 54.9843 106.003 55.0043C105.851 55.1949 104.585 57.0878 104.565 57.1329C103.592 58.4765 102.528 59.7197 101.766 60.675C93.7203 70.7601 79.4278 86.6189 66.0911 76.3715C51.4397 65.1138 72.0614 37.8594 85.5188 36.448C90.7052 35.9041 98.6145 39.7932 98.7446 45.6706C98.9512 54.9993 82.7662 66.2957 74.1407 63.5674C73.6958 63.4266 72.2016 62.4451 71.4886 62.1258Z" fill="white"/>
<path d="M286.06 15.4459C286.975 19.1419 287.555 23.6904 284.375 26.369C280.727 29.4405 271.886 33.1611 267.23 31.4618C262.642 29.7875 267.935 28.2652 269.542 27.3705C272.928 25.4855 275.828 23.2318 278.838 20.815C280.464 19.5087 283.034 16.6636 284.553 15.7383C285.044 15.4392 285.486 15.2746 286.06 15.4459Z" fill="white"/>
<path d="M101.83 19.2451C99.4456 19.3964 97.9695 21.8673 99.0085 24.048C100.139 26.4211 103.474 26.6356 104.908 24.4242C106.442 22.059 104.567 19.0714 101.83 19.2451ZM101.287 14.2935C104.204 14.0661 106.944 15.2547 108.693 17.5999C109.824 19.1169 110.576 21.383 110.291 23.2848C109.828 26.3814 106.324 30.5471 104.171 32.7693C103.215 33.7549 102.208 34.9301 100.842 33.655C98.6328 31.5926 95.2917 27.5588 94.2457 24.7393C92.4702 19.9532 96.3738 14.6765 101.287 14.2935Z" fill="white"/>
<path d="M88.5378 17.0294C86.006 15.4567 82.7436 17.6084 83.4427 20.6038C84.1354 23.5717 88.0407 24.1637 89.6382 21.644C90.6162 20.1013 90.045 17.9657 88.5378 17.0294ZM91.3672 12.9157C94.4475 14.9931 95.9187 19.2998 94.4896 22.8072C93.4806 25.2837 89.592 27.8475 87.3357 29.1211C86.4005 29.6491 85.1033 30.3741 84.1195 30.7538C83.1179 31.1405 82.343 30.7125 81.8929 29.8006C80.4265 26.8287 77.8968 20.511 78.8674 17.2665C80.4198 12.0771 86.9148 9.9128 91.3672 12.9157Z" fill="white"/>
<path d="M98.8306 13.7664C98.3855 13.4233 97.8753 13.1287 97.4794 12.7325C97.4267 12.629 97.4916 12.5215 97.5505 12.4378L99.6484 9.55966C99.7369 9.45547 99.8757 9.42398 99.9896 9.51073L101.217 10.404C101.242 10.4342 101.25 10.4747 101.255 10.5124C101.28 10.5553 101.276 10.6148 101.255 10.659C101.275 10.6878 101.25 10.7552 101.232 10.7911L99.1683 13.6403C99.1108 13.7152 99.0274 13.7572 98.9182 13.7664H98.8306Z" fill="white"/>
<path d="M91.8496 8.51909V8.48977C91.86 8.42911 91.8697 8.37051 91.8788 8.3139C91.8943 8.22435 91.9633 8.1725 92.0459 8.14452C92.4667 8.12189 92.9093 8.01732 93.325 7.99172C93.5203 7.97967 93.76 7.94159 93.8051 8.18362L94.2093 11.8396C94.1732 12.0374 94.0831 12.0597 93.9057 12.0923C93.4701 12.1726 92.9761 12.1547 92.5359 12.2446C92.4041 12.2503 92.2841 12.1493 92.2602 12.0206C92.131 10.9206 92.0503 9.81102 91.9043 8.71348C91.8958 8.64943 91.8842 8.57419 91.8496 8.51909Z" fill="white"/>
<path d="M96.3188 7.17058V7.19991C96.2902 7.28039 96.1717 7.27904 96.1436 7.19991V7.17058H96.3188Z" fill="white"/>
<path d="M91.8496 8.48975V8.31383H91.8788C91.8698 8.36617 91.9047 8.45707 91.8496 8.48975Z" fill="white"/>
<path d="M101.284 10.6591H101.255C101.251 10.611 101.261 10.56 101.255 10.5125H101.284V10.6591Z" fill="white"/>
<path d="M96.3186 7.19986C96.5958 7.21417 97.4541 7.38965 97.7206 7.47921C97.8369 7.51826 97.8943 7.58167 97.8992 7.71232L96.7783 13.2163C96.7475 13.329 96.6523 13.4 96.5384 13.4095L95.0387 13.1016C94.9285 13.0719 94.8748 12.9781 94.8604 12.8701L95.9767 7.42833C95.9967 7.33138 96.0351 7.22119 96.1434 7.19986C96.185 7.19165 96.2707 7.19737 96.3186 7.19986Z" fill="white"/>
</svg>
