<svg width="114" height="32" viewBox="0 0 114 32" fill="none" xmlns="http://www.w3.org/2000/svg">
<path d="M78.8596 19.9521C77.8586 21.1799 76.7338 22.7862 76.0572 24.2386C75.727 24.9475 74.814 27.0197 75.9464 27.3254C77.1864 27.6601 79.7656 24.9921 80.5774 24.1208L80.5205 23.9275C79.2373 23.12 78.7934 21.3944 78.8596 19.9521ZM84.0177 16.1118C83.4387 15.6322 82.334 17.8586 82.1475 18.2712C81.747 19.1571 81.1969 20.6519 81.377 21.6098C81.4813 22.165 82.0625 21.9419 82.3711 21.678C83.3019 20.8818 84.4042 17.3464 84.0177 16.1118ZM100.453 21.375C100.408 21.4575 100.466 21.5572 100.559 21.5618C103.008 21.6825 107.428 18.5722 107.782 16.2788C107.993 14.9165 106.813 15.5068 106.042 15.8629C104.503 16.5736 102.795 18.3236 101.727 19.6304C101.6 19.7852 100.696 20.9275 100.453 21.375ZM99.4874 23.0416C99.415 23.0092 99.3309 23.0516 99.313 23.1291C97.6271 30.4522 102.913 27.5455 106.398 25.106C108.894 23.3587 111.164 21.2068 113.364 19.1061C113.372 19.0985 113.381 19.0917 113.391 19.0865C113.801 18.8658 113.276 19.8399 113.069 20.2213C113.064 20.2301 113.059 20.2382 113.052 20.2461C112.993 20.3209 112.495 21.0639 112.487 21.0816C112.105 21.6091 111.687 22.0971 111.387 22.4721C108.225 26.4309 102.608 32.6562 97.3661 28.6336C91.6078 24.2145 99.7125 13.5159 105.002 12.9619C107.04 12.7484 110.149 14.275 110.2 16.5822C110.281 20.2441 103.92 24.6784 100.53 23.6075C100.355 23.5522 99.7677 23.1669 99.4874 23.0416ZM95.5448 25.0523C95.5004 24.9034 95.6328 24.8172 95.3444 24.8603C93.8305 26.4995 92.2402 28.3441 90.2863 29.4752C84.2616 32.9629 82.9171 26.8976 85.6124 22.6059C83.9075 22.8687 83.3567 24.3013 82.3706 25.3912C80.398 27.5716 76.1004 31.7919 73.2981 28.6417C70.2836 25.2531 73.9148 19.3342 76.3421 16.5666C76.9209 15.9066 78.9159 13.8501 79.6511 13.6478C80.6604 13.3701 80.8214 14.1187 81.1753 14.1186C81.3857 14.1186 81.9823 13.5633 82.3611 13.4454C84.747 12.7024 86.0378 14.6964 86.1466 16.8297C86.2201 18.2699 85.7447 19.4561 85.216 20.7471C85.3125 20.8463 87.0731 19.8593 87.2696 19.6892C88.1746 18.9059 90.0616 15.5622 90.9323 14.3401C94.0413 9.9768 97.4218 5.7945 100.17 1.18151C101.008 0.442337 102.014 1.68606 102.202 2.47027C102.769 4.83167 101.716 6.10677 100.575 7.95232C96.954 13.8035 91.9624 19.7725 88.8993 25.831C88.6448 26.3343 87.8251 27.6242 88.5671 27.8912C89.3596 27.8198 93.0684 24.1167 93.8237 23.3375C94.5207 22.6185 95.7844 21.4079 96.3353 20.6813" fill="black"/>
<path d="M57.4164 18.3593C57.5769 18.486 60.7386 16.962 61.1705 16.7504C64.3382 15.1983 68.8006 12.722 70.4585 9.47721C72.3399 5.79489 69.4237 3.97269 66.0213 4.17116C66.7331 5.43925 66.9358 6.64476 66.1316 7.9276C64.8316 10.0015 61.8784 12.6902 60.1996 14.7167C59.2255 15.8927 58.2876 17.1054 57.4164 18.3593ZM59.27 22.0757C59.1629 22.2186 61.0877 24.1188 61.3252 24.3251C62.9111 25.7029 66.5722 28.3193 68.602 26.7153C69.1031 26.3193 69.681 24.6204 70.1697 26.2068C70.6725 27.8389 69.3016 29.5836 67.9178 30.2737C63.1792 32.6371 57.1476 27.2567 54.7026 23.5356C53.7962 25.2935 53.7697 27.3198 53.432 29.2242C51.6978 29.1097 50.2721 26.9522 50.1306 25.3281C49.7716 21.2055 52.4936 17.2691 54.9047 14.1866C57.385 11.0158 60.2611 8.13598 62.5792 4.83428C57.4141 6.39131 50.7971 10.0512 50.3995 16.1067C48.2637 15.9998 47.2917 13.8559 47.3533 11.9341C47.5142 6.91876 56.5955 1.55266 60.9343 0.466217C71.7779 -2.24909 80.3773 7.40654 70.8567 16.1095C67.736 18.9622 63.455 21.3503 59.27 22.0757Z" fill="black"/>
<path d="M19.5923 7.75071C18.8707 7.66501 18.0144 7.81322 17.2756 7.75071C17.2441 8.24303 17.7044 8.42995 17.923 8.89262C18.1954 9.46909 18.2959 10.0502 17.9634 10.6288C13.9911 14.9946 8.24599 20.6333 6.85669 26.5565C6.79621 26.8143 6.49312 27.6686 6.88423 27.6475C8.01249 27.5868 10.92 25.9536 11.9691 25.3122C15.7178 23.0205 22.2287 17.2197 23.4316 12.9233C24.2237 10.0943 22.3346 8.07636 19.5923 7.75071ZM11.8479 9.34355C11.7111 9.22471 9.64176 10.4305 9.34294 10.6125C6.77493 12.1766 4.2895 14.1954 2.99716 16.9871C2.84189 17.3225 2.60437 18.5073 2.27461 18.4773C-2.06763 15.9342 0.639136 11.0258 3.50588 8.47827C10.5741 2.19706 26.7544 0.935953 25.5986 14.1659C24.9977 21.0444 17.2142 29.5159 10.7576 31.5255C8.98065 32.0785 7.03601 32.4385 5.62245 30.8971C4.88612 30.0942 4.99476 29.4195 4.54779 28.6581C4.32589 28.2801 3.80453 27.8615 3.53124 27.4219C2.3725 25.5579 2.70694 24.0923 3.37298 22.138C5.05272 17.2093 8.76216 13.3912 11.8479 9.34355Z" fill="black"/>
<path d="M28.8462 22.43C28.8014 22.5125 28.8594 22.6122 28.953 22.6168C31.4011 22.7376 35.8213 19.6272 36.1758 17.3338C36.3863 15.9715 35.2063 16.5618 34.4353 16.9179C32.8966 17.6286 31.189 19.3786 30.1206 20.6854C29.9941 20.8402 29.0892 21.9825 28.8462 22.43ZM27.881 24.0966C27.8085 24.0642 27.7245 24.1067 27.7066 24.1842C26.0206 31.5073 31.307 28.6005 34.7919 26.161C37.2879 24.4137 39.5577 22.2618 41.758 20.1611C41.7659 20.1535 41.775 20.1467 41.7847 20.1415C42.195 19.9208 41.6696 20.8949 41.4621 21.2763C41.4574 21.2851 41.4522 21.2932 41.446 21.3011C41.3864 21.3759 40.8885 22.1189 40.8809 22.1367C40.4983 22.6641 40.0803 23.1521 39.7807 23.5271C36.6185 27.4859 31.0013 33.7112 25.7596 29.6886C20.0013 25.2695 28.1061 14.5709 33.3952 14.0169C35.4336 13.8034 38.5421 15.33 38.5932 17.6372C38.6744 21.2991 32.3133 25.7335 28.9233 24.6625C28.7485 24.6072 28.1612 24.2219 27.881 24.0966Z" fill="black"/>
<path d="M112.212 5.77257C112.572 7.22342 112.8 9.00892 111.55 10.0604C110.117 11.2661 106.642 12.7266 104.812 12.0595C103.009 11.4023 105.089 10.8047 105.72 10.4535C107.051 9.71356 108.191 8.8289 109.374 7.8802C110.013 7.36741 111.023 6.25058 111.62 5.88736C111.813 5.76994 111.987 5.70534 112.212 5.77257Z" fill="black"/>
<path d="M39.8054 7.26391C38.8684 7.32329 38.2883 8.29325 38.6966 9.14925C39.141 10.0808 40.4518 10.165 41.0153 9.29693C41.618 8.36848 40.8811 7.19572 39.8054 7.26391ZM39.5919 5.32019C40.7385 5.23091 41.8154 5.69749 42.5026 6.61811C42.9472 7.21359 43.2427 8.10311 43.1309 8.84966C42.9487 10.0652 41.5717 11.7004 40.7254 12.5728C40.35 12.9597 39.9543 13.421 39.4174 12.9205C38.549 12.1109 37.2358 10.5274 36.8247 9.42064C36.1269 7.54189 37.6611 5.47052 39.5919 5.32019Z" fill="#FFB200"/>
<path d="M34.5809 6.39418C33.5858 5.77681 32.3036 6.62145 32.5784 7.7973C32.8506 8.96232 34.3855 9.1947 35.0134 8.20561C35.3978 7.60004 35.1733 6.7617 34.5809 6.39418ZM35.6929 4.77935C36.9035 5.59486 37.4818 7.28542 36.9201 8.66223C36.5235 9.63437 34.9952 10.6408 34.1085 11.1407C33.7409 11.348 33.231 11.6326 32.8444 11.7816C32.4508 11.9334 32.1462 11.7654 31.9693 11.4074C31.393 10.2408 30.3988 7.76088 30.7802 6.48726C31.3903 4.45019 33.943 3.60059 35.6929 4.77935Z" fill="#FFB200"/>
<path d="M38.6256 5.11316C38.4507 4.97848 38.2501 4.86287 38.0945 4.70731C38.0739 4.6667 38.0993 4.62451 38.1225 4.59163L38.947 3.46184C38.9818 3.42095 39.0364 3.40858 39.0811 3.44263L39.5636 3.79328C39.5733 3.80515 39.5766 3.82103 39.5785 3.83583C39.5881 3.85269 39.5866 3.87605 39.5785 3.89337C39.5863 3.9047 39.5765 3.93113 39.5692 3.94523L38.7583 5.06367C38.7357 5.09306 38.703 5.10955 38.66 5.11316H38.6256Z" fill="#FFB200"/>
<path d="M35.8838 3.05334V3.04182C35.8879 3.01801 35.8917 2.99501 35.8953 2.97279C35.9013 2.93764 35.9285 2.91728 35.961 2.9063C36.1263 2.89741 36.3003 2.85637 36.4637 2.84632C36.5404 2.84159 36.6346 2.82664 36.6523 2.92165L36.8112 4.35676C36.797 4.43441 36.7616 4.44316 36.6919 4.45599C36.5207 4.4875 36.3265 4.48046 36.1535 4.51578C36.1017 4.51799 36.0546 4.47836 36.0452 4.42783C35.9944 3.99605 35.9627 3.56047 35.9053 3.12964C35.9019 3.1045 35.8974 3.07496 35.8838 3.05334Z" fill="#FFB200"/>
<path d="M37.6403 2.5244V2.53577C37.6291 2.56695 37.5832 2.56643 37.5723 2.53577V2.5244H37.6403Z" fill="#FFB200"/>
<path d="M35.8838 3.04211V2.97394H35.8951C35.8916 2.99423 35.9052 3.02945 35.8838 3.04211Z" fill="#FFB200"/>
<path d="M39.5907 3.89368H39.5795C39.5779 3.87524 39.5818 3.85565 39.5795 3.8374H39.5907V3.89368Z" fill="#FFB200"/>
<path d="M37.6386 2.53569C37.7475 2.54131 38.0848 2.61019 38.1896 2.64535C38.2353 2.66068 38.2578 2.68557 38.2597 2.73685L37.8192 4.89743C37.8071 4.94163 37.7697 4.96951 37.725 4.97327L37.1355 4.85237C37.0922 4.84073 37.0711 4.8039 37.0654 4.76152L37.5042 2.62537C37.5121 2.58732 37.5271 2.54406 37.5697 2.53569C37.586 2.53246 37.6197 2.53471 37.6386 2.53569Z" fill="#FFB200"/>
</svg>
