<svg width="291" height="83" viewBox="0 0 291 83" fill="none" xmlns="http://www.w3.org/2000/svg">
<path d="M201.884 51.5683C199.329 54.696 196.458 58.7881 194.731 62.4881C193.888 64.294 191.557 69.5728 194.448 70.3515C197.613 71.2043 204.197 64.4075 206.269 62.1881L206.124 61.6955C202.848 59.6384 201.715 55.2425 201.884 51.5683ZM215.05 41.7852C213.573 40.5635 210.753 46.2352 210.277 47.2863C209.254 49.5431 207.85 53.351 208.31 55.7912C208.576 57.2056 210.06 56.6372 210.847 55.9649C213.223 53.9368 216.037 44.9303 215.05 41.7852ZM257.002 55.193C256.888 55.4032 257.036 55.6572 257.275 55.669C263.524 55.9766 274.807 48.0529 275.712 42.2105C276.249 38.7401 273.237 40.2439 271.269 41.1511C267.341 42.9616 262.982 47.4198 260.255 50.7488C259.932 51.143 257.622 54.0531 257.002 55.193ZM254.538 59.4387C254.353 59.3561 254.139 59.4643 254.093 59.6617C249.79 78.3172 263.284 70.9122 272.179 64.6977C278.55 60.2466 284.344 54.7646 289.961 49.4131C289.981 49.3938 290.004 49.3763 290.029 49.3631C291.076 48.801 289.735 51.2824 289.205 52.2541C289.193 52.2765 289.18 52.2972 289.164 52.3171C289.012 52.5077 287.741 54.4006 287.722 54.4457C286.745 55.7894 285.678 57.0326 284.914 57.9879C276.842 68.073 262.503 83.9318 249.123 73.6843C234.425 62.4267 255.113 35.1722 268.614 33.7609C273.817 33.217 281.752 37.106 281.882 42.9834C282.09 52.3122 265.852 63.6086 257.199 60.8802C256.753 60.7395 255.254 59.758 254.538 59.4387ZM244.475 64.561C244.361 64.1816 244.699 63.962 243.963 64.0718C240.099 68.2476 236.039 72.9468 231.052 75.8283C215.673 84.713 212.241 69.2619 219.121 58.3287C214.769 58.9983 213.363 62.6479 210.846 65.4244C205.811 70.9789 194.841 81.7299 187.688 73.705C179.993 65.0724 189.262 49.9943 195.458 42.9438C196.935 41.2625 202.028 36.0235 203.904 35.5082C206.481 34.8008 206.892 36.7079 207.795 36.7076C208.332 36.7074 209.855 35.293 210.822 34.9924C216.912 33.0999 220.207 38.1795 220.485 43.614C220.672 47.283 219.459 50.3048 218.109 53.5936C218.356 53.8463 222.85 51.3318 223.351 50.8985C225.661 48.9031 230.478 40.3851 232.701 37.2719C240.637 26.1564 249.266 15.502 256.28 3.75052C258.419 1.86749 260.987 5.03585 261.468 7.03361C262.916 13.0492 260.228 16.2975 257.313 20.999C248.072 35.9049 235.33 51.1107 227.511 66.5447C226.861 67.8269 224.769 71.1129 226.663 71.7931C228.686 71.6111 238.153 62.1776 240.081 60.1925C241.86 58.3608 245.086 55.2768 246.492 53.426" fill="black"/>
<path d="M147.144 47.5105C147.554 47.8332 155.624 43.951 156.727 43.4118C164.813 39.4579 176.203 33.1496 180.435 24.8835C185.238 15.5029 177.794 10.8608 169.109 11.3664C170.926 14.5969 171.443 17.6679 169.391 20.9359C166.072 26.2191 158.534 33.0685 154.249 38.2311C151.762 41.2268 149.368 44.3161 147.144 47.5105ZM151.876 56.978C151.602 57.3419 156.516 62.1827 157.122 62.7083C161.17 66.2182 170.515 72.8833 175.696 68.7972C176.975 67.7885 178.451 63.4606 179.698 67.5019C180.981 71.6596 177.482 76.1041 173.95 77.8623C161.854 83.883 146.458 70.1764 140.217 60.697C137.903 65.1751 137.836 70.3372 136.974 75.1887C132.547 74.8968 128.908 69.4007 128.547 65.2633C127.63 54.7612 134.578 44.7333 140.733 36.8807C147.064 28.803 154.406 21.4667 160.323 13.0557C147.138 17.0222 130.248 26.3458 129.233 41.772C123.781 41.4998 121.3 36.0381 121.457 31.1425C121.868 18.3659 145.049 4.69585 156.124 1.92815C183.803 -4.98905 205.754 19.6085 181.452 41.7792C173.486 49.0465 162.558 55.1299 151.876 56.978Z" fill="black"/>
<path d="M50.5941 20.4852C48.7522 20.2669 46.5664 20.6445 44.6805 20.4852C44.6001 21.7394 45.7751 22.2156 46.3331 23.3942C47.0284 24.8628 47.2849 26.3433 46.4364 27.8171C36.2966 38.939 21.6317 53.3034 18.0853 68.3926C17.931 69.0494 17.1573 71.2256 18.1556 71.172C21.0356 71.0174 28.4573 66.8567 31.1352 65.2228C40.7041 59.3847 57.3238 44.6074 60.3944 33.6624C62.4163 26.4555 57.5942 21.3148 50.5941 20.4852ZM30.8258 24.543C30.4766 24.2402 25.1945 27.312 24.4317 27.7756C17.8767 31.76 11.5324 36.903 8.23355 44.0147C7.83719 44.8692 7.2309 47.8874 6.38915 47.8112C-4.69481 41.3326 2.21446 28.8284 9.53209 22.3387C27.5744 6.33741 68.8761 3.12476 65.9259 36.8278C64.3921 54.3506 44.5238 75.9317 28.0427 81.0511C23.5069 82.46 18.5431 83.377 14.9348 79.4502C13.0553 77.4048 13.3326 75.6862 12.1917 73.7465C11.6252 72.7834 10.2944 71.717 9.59682 70.5972C6.63903 65.8489 7.49271 62.1152 9.19285 57.1367C13.4805 44.5809 22.9493 34.8542 30.8258 24.543Z" fill="black"/>
<path d="M74.2155 57.8802C74.1012 58.0904 74.2492 58.3443 74.4882 58.3561C80.7372 58.6637 92.0201 50.7401 92.925 44.8976C93.4625 41.4273 90.4502 42.931 88.4821 43.8382C84.5545 45.6487 80.1957 50.1069 77.4685 53.436C77.1456 53.8302 74.8357 56.7402 74.2155 57.8802ZM71.7518 62.1258C71.5668 62.0433 71.3522 62.1515 71.3067 62.3489C67.003 81.0044 80.497 73.5994 89.3924 67.3848C95.7637 62.9337 101.558 57.4518 107.174 52.1003C107.194 52.0809 107.218 52.0635 107.242 52.0502C108.29 51.4881 106.948 53.9695 106.419 54.9412C106.407 54.9637 106.393 54.9843 106.378 55.0043C106.225 55.1949 104.955 57.0878 104.935 57.1329C103.958 58.4765 102.892 59.7197 102.127 60.675C94.0552 70.7601 79.7166 86.6189 66.3368 76.3715C51.6382 65.1138 72.3264 37.8594 85.8272 36.448C91.0304 35.9041 98.9652 39.7932 99.0957 45.6706C99.3029 54.9993 83.0657 66.2957 74.4125 63.5674C73.966 63.4266 72.467 62.4451 71.7518 62.1258Z" fill="black"/>
<path d="M287.015 15.4459C287.933 19.1419 288.515 23.6904 285.324 26.369C281.666 29.4405 272.795 33.1611 268.124 31.4618C263.522 29.7875 268.832 28.2652 270.444 27.3705C273.841 25.4855 276.75 23.2318 279.77 20.815C281.402 19.5087 283.979 16.6636 285.504 15.7383C285.996 15.4392 286.439 15.2746 287.015 15.4459Z" fill="black"/>
<path d="M102.19 19.2451C99.7988 19.3964 98.3179 21.8673 99.3602 24.048C100.494 26.4211 103.841 26.6356 105.279 24.4242C106.817 22.059 104.936 19.0714 102.19 19.2451ZM101.646 14.2935C104.572 14.0661 107.321 15.2547 109.075 17.5999C110.21 19.1169 110.965 21.383 110.679 23.2848C110.214 26.3814 106.699 30.5471 104.539 32.7693C103.581 33.7549 102.571 34.9301 101.2 33.655C98.9834 31.5926 95.6314 27.5588 94.5821 24.7393C92.8008 19.9532 96.7171 14.6765 101.646 14.2935Z" fill="black"/>
<path d="M88.8558 17.0294C86.3158 15.4567 83.0429 17.6084 83.7443 20.6038C84.4392 23.5717 88.3571 24.1637 89.9598 21.644C90.941 20.1013 90.3679 17.9657 88.8558 17.0294ZM91.6943 12.9157C94.7846 14.9931 96.2605 19.2998 94.8269 22.8072C93.8145 25.2837 89.9134 27.8475 87.6499 29.1211C86.7116 29.6491 85.4102 30.3741 84.4233 30.7538C83.4184 31.1405 82.641 30.7125 82.1895 29.8006C80.7183 26.8287 78.1805 20.511 79.1542 17.2665C80.7116 12.0771 87.2276 9.9128 91.6943 12.9157Z" fill="black"/>
<path d="M99.1817 13.7664C98.7351 13.4233 98.2233 13.1287 97.8261 12.7325C97.7733 12.629 97.8384 12.5215 97.8975 12.4378L100.002 9.55966C100.091 9.45547 100.23 9.42398 100.344 9.51073L101.576 10.404C101.601 10.4342 101.609 10.4747 101.614 10.5124C101.639 10.5553 101.635 10.6148 101.614 10.659C101.634 10.6878 101.609 10.7552 101.59 10.7911L99.5205 13.6403C99.4628 13.7152 99.3792 13.7572 99.2696 13.7664H99.1817Z" fill="black"/>
<path d="M92.1777 8.51909V8.48977C92.1882 8.42911 92.1979 8.37051 92.2071 8.3139C92.2225 8.22435 92.2918 8.1725 92.3747 8.14452C92.7968 8.12189 93.2408 8.01732 93.6579 7.99172C93.8538 7.97967 94.0943 7.94159 94.1395 8.18362L94.5451 11.8396C94.5088 12.0374 94.4184 12.0597 94.2405 12.0923C93.8034 12.1726 93.3078 12.1547 92.8663 12.2446C92.734 12.2503 92.6137 12.1493 92.5896 12.0206C92.4601 10.9206 92.3791 9.81102 92.2326 8.71348C92.2241 8.64943 92.2125 8.57419 92.1777 8.51909Z" fill="black"/>
<path d="M96.6612 7.17058V7.19991C96.6324 7.28039 96.5136 7.27904 96.4854 7.19991V7.17058H96.6612Z" fill="black"/>
<path d="M92.1777 8.48975V8.31383H92.2071C92.198 8.36617 92.233 8.45707 92.1777 8.48975Z" fill="black"/>
<path d="M101.644 10.6591H101.614C101.61 10.611 101.62 10.56 101.614 10.5125H101.644V10.6591Z" fill="black"/>
<path d="M96.6612 7.19986C96.9393 7.21417 97.8004 7.38965 98.0678 7.47921C98.1844 7.51826 98.2419 7.58167 98.2469 7.71232L97.1224 13.2163C97.0915 13.329 96.996 13.4 96.8817 13.4095L95.3771 13.1016C95.2667 13.0719 95.2127 12.9781 95.1982 12.8701L96.3182 7.42833C96.3383 7.33138 96.3768 7.22119 96.4854 7.19986C96.5271 7.19165 96.6132 7.19737 96.6612 7.19986Z" fill="black"/>
</svg>
